<svg width="32" height="32" viewBox="0 0 32 32" xmlns="http://www.w3.org/2000/svg">
  <defs>
    <linearGradient id="primaryGradient" x1="0%" y1="0%" x2="100%" y2="0%">
      <stop offset="0%" style="stop-color:#667eea;stop-opacity:1" />
      <stop offset="100%" style="stop-color:#764ba2;stop-opacity:1" />
    </linearGradient>
    
    <linearGradient id="accentGradient" x1="0%" y1="0%" x2="100%" y2="100%">
      <stop offset="0%" style="stop-color:#f093fb;stop-opacity:1" />
      <stop offset="100%" style="stop-color:#f5576c;stop-opacity:1" />
    </linearGradient>
  </defs>
  
  <!-- Base da pasta moderna -->
  <rect x="4" y="8" width="20" height="16" 
        rx="3" ry="3" 
        fill="url(#primaryGradient)"/>
  
  <!-- Aba da pasta -->
  <rect x="4" y="8" width="12" height="6" 
        rx="3" ry="3" 
        fill="url(#primaryGradient)" 
        opacity="0.8"/>
  
  <!-- Arquivos sobrepostos -->
  <g transform="translate(16, 4)">
    <!-- Arquivo 1 -->
    <rect x="0" y="0" width="8" height="10" 
          rx="1" ry="1" 
          fill="#68d391"/>
    <rect x="1" y="1" width="6" height="0.5" fill="white" opacity="0.8"/>
    <rect x="1" y="3" width="4" height="0.5" fill="white" opacity="0.6"/>
    
    <!-- Arquivo 2 -->
    <rect x="2" y="1" width="8" height="10" 
          rx="1" ry="1" 
          fill="#f6ad55"/>
    <rect x="3" y="2" width="6" height="0.5" fill="white" opacity="0.8"/>
    <rect x="3" y="4" width="4" height="0.5" fill="white" opacity="0.6"/>
    
    <!-- Arquivo 3 -->
    <rect x="4" y="2" width="8" height="10" 
          rx="1" ry="1" 
          fill="#fc8181"/>
    <rect x="5" y="3" width="6" height="0.5" fill="white" opacity="0.8"/>
    <rect x="5" y="5" width="4" height="0.5" fill="white" opacity="0.6"/>
  </g>
  
  <!-- Ícone de organização central -->
  <circle cx="16" cy="16" r="4" 
          fill="url(#accentGradient)"/>
  
  <!-- Grid de organização -->
  <rect x="14" y="14" width="1" height="1" fill="white" opacity="0.9"/>
  <rect x="15.5" y="14" width="1" height="1" fill="white" opacity="0.9"/>
  <rect x="17" y="14" width="1" height="1" fill="white" opacity="0.9"/>
  
  <rect x="14" y="15.5" width="1" height="1" fill="white" opacity="0.7"/>
  <rect x="15.5" y="15.5" width="1" height="1" fill="white" opacity="0.7"/>
  <rect x="17" y="15.5" width="1" height="1" fill="white" opacity="0.7"/>
  
  <rect x="14" y="17" width="1" height="1" fill="white" opacity="0.5"/>
  <rect x="15.5" y="17" width="1" height="1" fill="white" opacity="0.5"/>
  <rect x="17" y="17" width="1" height="1" fill="white" opacity="0.5"/>
</svg>